<svg xmlns="http://www.w3.org/2000/svg" viewBox="-10 0 1020 1000"><path d="M950 460q20 0 35 12t15 28q0 40-50 40h-48q-50 0-50-40 0-16 15-28t35-12h48zM500 226q114 0 195 80t81 195-81 195-195 80-194-80-80-195 80-195 194-80zm6 474V300q-86 0-146 59t-60 142 60 141 146 58zM150 500q0 40-50 40H50q-50 0-50-40 0-16 15-28t35-12h50q20 0 35 12t15 28zm350-350q-16 0-28-15t-12-35V50q0-20 12-35t28-15 28 15 12 35v50q0 20-12 35t-28 15zm0 700q16 0 28 15t12 35v50q0 20-12 35t-28 15-28-15-12-35v-50q0-20 12-35t28-15zm368-660-34 34q-34 34-64 8-28-28 8-64 4-6 34-36 36-34 64-6t-8 64zM168 778q14-16 33-18t30 10 9 31-16 33l-36 36q-14 14-33 16t-29-10q-30-28 6-64 6-4 36-34zm20-646 36 36q36 36 6 64-10 10-29 8t-33-16q-30-30-36-34-14-14-16-33t9-31 30-10 33 16zm590 702q-36-36-8-64t64 8l34 34q36 36 8 64t-64-6q-30-30-34-36z"/></svg>