<svg xmlns="http://www.w3.org/2000/svg" viewBox="-10 0 1010 1000"><path d="M256 440q0-49 20-95t52-78 78-52q44-19 94.5-19t95 19 77 51.5T725 345t20 95q0 80-48 144t-124 88v109H432V673q-77-22-126.5-86.5T256 440zm54 0q0 77 56 133t134 56q53 0 96.5-25.5t69-69T691 440q0-38-14.5-73T635 305q-25-25-60-40t-73.5-15-74.5 15-60.5 39.5T326 366q-16 35-16 74zm19 12v-24h73v24h-73zm37-118 17-17 51 50-18 18zm84 164q0-21 14.5-36.5T500 446l91-150 22 12-67 161q8 11 8 29 0 22-15 37t-37 15-37-15-15-37zm44-155v-72h23v72h-23zm98 109v-25h72v25h-72z"/></svg>