<svg xmlns="http://www.w3.org/2000/svg" viewBox="-11 0 985 1000"><path d="M560 109H404l-45 178-176-51-79 136 133 128-133 127 79 135 176-50 45 178h156l44-178 178 50 77-135-132-127 132-128-77-136-178 51zm0-104q35 0 63 22t37 57l19 73 74-21q15-4 29-4 60 0 90 53l77 135q18 31 13 66t-30 60l-55 54 55 52q25 25 30 60t-13 67l-77 136q-30 51-90 51-14 0-29-3l-74-21-17 74q-9 35-37 57t-65 22H404q-36 0-64-22t-37-57l-19-74-72 22q-15 4-29 4-60 0-90-53L14 680q-18-31-13-67t31-61l55-52-55-53Q7 422 2 387t12-67l79-135q30-53 90-53 14 0 29 4l72 21 19-73q9-35 37-57t64-22h156zm-78 391q-44 0-74 30t-30 74 30 74 74 30 74-31 31-73-31-73-74-31zm0-52q65 0 110 45t46 111-46 111-110 45-111-45-46-111 46-111 111-45z"/></svg>