<svg xmlns="http://www.w3.org/2000/svg" viewBox="-10 0 1163 1000"><path d="M1143 499q0 12-7 21t-19 11l-114 198q2 5 2 10 0 12-7 20t-19 11L872 958q1 5 1 9 0 13-9 22t-22.5 9.5T819 989H595q-9 11-24 11t-24-11H325q-10 11-23.5 11t-22.5-9-10-23q0-4 2-11L164 770q-12-2-19-11t-7-20q0-5 2-10L25 531q-11-3-18-12t-7-20 8-20 18-11l111-192v-3q0-20 19-29L272 42q-2-6-2-10 0-14 10-23t23-9 24 12h220q9-12 24-12t24 12h223q10-12 23.5-12T864 9t10 23q0 3-2 10l115 200q13 0 22 9t9 22q0 7-4 15l104 181q11 2 18 11t7 19zM593 945h217L619 748h-79L349 945h201q10-9 21-9t22 9zM63 492v7.5l-1 8.5 116 201h3q2 0 3 2l2 1 105-111V407L187 299q-7 5-16 6zM550 55H334l106 111L749 55H593q-9 9-22 9t-21-9zm393 676q0-3 2-6l-35-38-10 44h43zm-60 0 13-59-141-148-165 171 35 36h258zm-49 205 9-15 37-173H641l186 191zm-511 9h2l191-197H308v187l2 3q8 3 13 7zm-15-214h224l36-37-172-179-88 93v123zm-108 0h91V626l-93 98q2 5 2 7zm0-460v2q0 9-4 16l95 99V238zm108-39v173l85 88 166-176-124-131zm2-170-2 4v148l114-42L316 60zm498-7h-9L452 180l119 125zM571 329 405 505l174 178 165-171zM384 503l-76-78v158zm195 203-23 25h47zm188-194 133 140 73-348-1-3h-1zm192-223q-5-7-5-16v-1L834 62l-7-3-244 258 173 183zm-668-69V95l-91 158zm0 528h-91l91 158V748zm606 0-27 126 73-126h-46zm68-39 115-202q-1-5-1-8l2-9-95-165-72 342 43 46q2-2 8-4z"/></svg>