<svg xmlns="http://www.w3.org/2000/svg" viewBox="0 0 512 512" style="enable-background:new 0 0 512 512" xml:space="preserve"><path d="M485.924 134.508c14.381 0 26.076-11.669 26.076-26.017v-17.39c0-14.348-11.695-26.017-26.076-26.017H468.61v-8.737c0-23.89-19.466-43.331-43.39-43.331s-43.39 19.441-43.39 43.331v8.737h-26.034v-8.737c0-23.89-19.466-43.331-43.39-43.331s-43.39 19.441-43.39 43.331v8.737h-26.034v-8.737c0-23.89-19.466-43.331-43.39-43.331s-43.39 19.441-43.39 43.331v8.737h-26.034v-8.737c0-23.89-19.466-43.331-43.39-43.331S43.39 32.458 43.39 56.348v8.737H17.356V39.051H0v121.492h17.356v-26.034H43.39v269.017H8.678A8.673 8.673 0 0 0 0 412.204v34.712a8.673 8.673 0 0 0 8.678 8.678 8.673 8.673 0 0 0 8.678-8.678v-26.034H43.39v34.78c0 23.89 19.466 43.322 43.39 43.322s43.39-19.432 43.39-43.322v-.068h26.034v.068c0 23.89 19.466 43.322 43.39 43.322s43.39-19.432 43.39-43.322v-.068h26.034v.068c0 23.89 19.466 43.322 43.39 43.322s43.39-19.432 43.39-43.322v-.068h26.034v.068c0 23.89 19.466 43.322 43.39 43.322s43.39-19.432 43.39-43.322v-.068h17.314c14.381 0 26.076-11.669 26.076-26.017v-17.39c0-14.347-11.695-26.017-26.076-26.017H468.61V134.508h17.314zM468.61 82.441h17.314c4.805 0 8.72 3.881 8.72 8.661v17.39c0 4.78-3.915 8.661-8.72 8.661H468.61V82.441zM43.39 117.153H17.356V82.441H43.39v34.712zm69.424-43.39V455.662c0 14.313-11.678 25.966-26.034 25.966s-26.034-11.653-26.034-25.966V56.348c0-14.322 11.678-25.975 26.034-25.975s26.034 11.653 26.034 25.975v17.415zm43.389 364.474h-26.034v-34.712h26.034v34.712zm0-52.068h-26.034V134.508h26.034v251.661zm0-269.016h-26.034V82.441h26.034v34.712zm69.424-43.39V455.662c0 14.313-11.678 25.966-26.034 25.966s-26.034-11.653-26.034-25.966V56.348c0-14.322 11.678-25.975 26.034-25.975s26.034 11.653 26.034 25.975v17.415zm43.39 364.474h-26.034v-34.712h26.034v34.712zm0-52.068h-26.034V134.508h26.034v251.661zm0-269.016h-26.034V82.441h26.034v34.712zm69.424-43.39V455.662c0 14.313-11.678 25.966-26.034 25.966s-26.034-11.653-26.034-25.966V56.348c0-14.322 11.678-25.975 26.034-25.975s26.034 11.653 26.034 25.975v17.415zm43.39 364.474h-26.034v-34.712h26.034v34.712zm0-52.068h-26.034V134.508h26.034v251.661zm0-269.016h-26.034V82.441h26.034v34.712zm69.423-43.39V455.662c0 14.313-11.678 25.966-26.034 25.966s-26.034-11.653-26.034-25.966V56.348c0-14.322 11.678-25.975 26.034-25.975s26.034 11.653 26.034 25.975v17.415zm34.67 329.762c4.805 0 8.72 3.881 8.72 8.661v17.39c0 4.78-3.915 8.661-8.72 8.661H468.61v-34.712h17.314z"/></svg>