<svg xmlns="http://www.w3.org/2000/svg" viewBox="-11 0 1019 1000"><path d="m0 831 209-685q4-12 16-12h138q12 0 16 12l207 681q2 6 2 8 0 16-16 16H447q-11 0-15-12l-35-123H191l-35 123q-4 12-15 12H16q-20 0-16-20zm223-248h142l-72-252zm369 111q4-84 53-128 46-41 111.5-41T865 560v-32q0-74-76-74-59 0-107 51-18 14-26-4l-41-68q-4-12 4-20 37-37 84-54 57-24 130-18t114 45q51 45 51 129v324q0 16-16 16h-99q-16 0-18-16v-10q-47 37-109 37-67-2-111-45-51-48-53-127zm133 2q0 30 17 51 29 24 68 17t55-34v-69q-13-25-37-31-57-20-86 14-17 23-17 52z"/></svg>