<svg xmlns="http://www.w3.org/2000/svg" viewBox="-10 0 720 1000"><path d="M350 340q68 0 114 47t46 114-46 113-113 46-114-46-47-113 47-114 113-47zm0 264q44 0 73-30t29-73-29-73-72-30-73 30-30 73 30 73 72 30zM50 460q20 0 35 12t15 28q0 40-50 40T0 500q0-16 15-28t35-12zm546-204q28 28-8 64-14 14-33 16t-30-10-9-31 16-33q36-34 64-6zm54 204q20 0 35 12t15 28q0 40-49 40t-49-40q0-16 14-28t34-12zM350 750q16 0 28 15t12 35-12 35-28 15-28-15-12-35 12-35 28-15zm-238-62q36-36 64-8t-8 64q-14 14-33 16t-29-8q-30-28 6-64zm-10-430q28-28 64 8 14 14 16 33t-8 29q-30 28-64-6-36-36-8-64zm432 484q-34-36-6-64t64 8q14 14 16 33t-10 29q-30 28-64-6zM350 250q-16 0-28-15t-12-35 12-35 28-15 28 15 12 35-12 35-28 15z"/></svg>