<svg xmlns="http://www.w3.org/2000/svg" viewBox="-11 0 1063 1000"><path d="M885 812H156q-21 0-37 16t-15 37 15 36 37 15h729q21 0 37-15t16-36-16-37-37-16zm0-104q65 0 111 46t45 111-45 110-111 46H156q-65 0-110-46T0 865t46-111 110-46h729zm0-261H156q-21 0-37 16t-15 37 15 37 37 15h729q21 0 37-15t16-37-16-37-37-16zm0-104q65 0 111 46t45 111-45 110-111 46H156q-65 0-110-46T0 500t46-111 110-46h729zm0-260H156q-21 0-37 15t-15 37 15 37 37 15h729q21 0 37-15t16-37-16-37-37-15zm0-105q65 0 111 46t45 111-45 110-111 46H156q-65 0-110-46T0 135 46 24t110-46h729z"/></svg>