<svg xmlns="http://www.w3.org/2000/svg" viewBox="-10 0 958 1000"><path d="M0 500q0-95 37-182t100-149T287 69t182-37 182 37 149 100 100 149 37 182-37 182-100 150-149 100-182 37-182-37-150-100T37 682 0 500zm88 0q0 104 51 191t139 139 191 51 191-51 138-139 52-191q0-77-31-147t-81-122-122-81-147-30-148 30-122 81-81 122-30 147zm118-200q7-7 23 0l529 213q11 4 15 10t1 12-13 11l-94 45-66 117q-9 14-24 15t-26-10l-13-14-2-1-29-29-71 33q-15 7-32 1t-24-22L208 323q-8-16-2-23zm101 66q0 1 3 4l9 10 189 168q13 11 33 15t34-3q16-6 15-17t-16-21L324 373q-8-5-12-6z"/></svg>