<svg xmlns="http://www.w3.org/2000/svg" viewBox="-10 0 1010 1000"><path d="M150 600q-28 0-50.5-20t-36-54.5T50 449t13.5-76 36-54 50.5-20 50.5 20 36 54.5T250 449t-13.5 76-36 55-50.5 20zm0-251q-12 0-23.5 13.5t-19 36.5-7.5 50 7.5 50.5 19 37T150 550t23.5-13.5 19-36.5 7.5-51-7.5-51-19-36-23.5-13zm200 51q-28 0-50.5-20t-36-54.5T250 250t13.5-75.5 36-54.5 50.5-20 50.5 20 36 54.5T450 250t-13.5 75.5-36 54.5-50.5 20zm0-250q-12 0-23.5 13.5t-19 36.5-7.5 50 7.5 50 19 36.5T350 350t23.5-13.5 19-36.5 7.5-50-7.5-50-19-36.5T350 150zm250 250q-28 0-50.5-20t-36-54.5T500 250t13.5-75.5 36-54.5 50.5-20 50.5 20 36 54.5T700 250t-13.5 75.5-36 54.5-50.5 20zm0-250q-12 0-23.5 13.5t-19 36.5-7.5 50 7.5 50 19 36.5T600 350t23.5-13.5 19-36.5 7.5-50-7.5-50-19-36.5T600 150zm200 450q-28 0-50.5-20t-36-54.5T700 449t13.5-76 36-54 50.5-20 50.5 20 36 54.5T900 449t-13.5 76-36 55-50.5 20zm0-251q-12 0-23.5 13.5t-19 36.5-7.5 50 7.5 50.5 19 37T800 550t23.5-13.5 19-36.5 7.5-51-7.5-51-19-36-23.5-13zM650 900q-28 0-56-9-16-6-43-19-23-12-35-16-19-6-40.5-6t-41.5 6q-12 5-35 16-27 13-43 19-27 9-56 9-21 0-39.5-10.5T228 859q-23-35-23.5-85.5T227 666q41-103 106-159.5T475 450t142 56.5T723 666q23 57 22.5 107.5T722 859q-14 20-32.5 30.5T650 900zM475 800q29 0 55 9 16 5 42 18l2 1q23 11 35 15 20 7 41 7 18 0 30-20 17-23 16-62t-19-84q-35-88-88-136t-114-48-114 48-88 136q-18 45-19 84t16 62q12 20 30 20 22 0 41-7 12-4 35-15 27-14 43-19 28-9 56-9z"/></svg>