<svg xmlns="http://www.w3.org/2000/svg" viewBox="-10 0 1010 1000"><path d="M475 600q-10 0-17.5-7.5T450 575V125q0-11 7.5-18t18-7 17.5 7 7 18v450q0 10-7 17.5t-18 7.5zm0 350q-75 0-143.5-28.5T210 840t-81.5-121.5T100 575q0-62 19.5-119.5t56-106 86-83T368 215q10-2 19 2.5t12 14.5-2 19-15 12q-67 20-120 66.5T179.5 440 150 575q0 88 44 164 44 73 117 117 76 44 164 44t164-44q73-44 117-117 44-76 44-164 0-71-29.5-135t-82-110.5T568 263q-10-3-15-12t-2-19 12-14.5 19-2.5q57 17 106.5 51.5t86 83 56 106T850 575q0 75-28.5 143.5T740 840t-121.5 81.5T475 950z"/></svg>