<svg xmlns="http://www.w3.org/2000/svg" viewBox="-10 0 938 1000"><path d="M688 221q92 0 158 66t65 157-65 158-158 65H241q-92 0-157-65T18 444t66-157 157-66l30 3q30-52 81-83t111.5-31.5T577 141t81 83zm0 335q45 0 78-33t33-79-33-79-78-33-79 33-33 79H464q0-109 90-178-33-45-90-45-45 0-78 33t-33 78q0 22 7 40l-104 38q-15-36-15-75-44 1-77 33t-34 76q0 46 33 79t78 33h447zM109 876q-15 15-37 15t-38-16-16-38 16-38q9-9 47-28t71-33l34-14q-56 131-77 152zm223 0q-15 15-36 15t-39-15q-16-16-16-39t16-38q9-9 48-28t72-33l32-14q-55 131-77 152zm224 0q-16 15-38 15t-38-16-16-38 16-38q10-9 48-28t71-33l33-14q-56 131-76 152z"/></svg>