<svg xmlns="http://www.w3.org/2000/svg" viewBox="-10 0 938 1000"><path d="M465 276q92 0 158 66t65 158-65 158-158 65-158-65-66-158 66-158 158-66zm56-168q0 24-17 41t-39 16-39-16-17-41 17-39 38-16q24 0 41 16t16 39zM130 220q0-55 55.5-55t55.5 55.5-55.5 55.5-55.5-56zM74 443q23 0 40 16t16 40-16 40-40 16-40-16-15.5-40T34 459t40-16zm56 335q0-55 55.5-55t55.5 55.5-55.5 55.5-55.5-56zm279 112q0-22 17-39t38-17q24 0 41 17t16 39-17 40-39 17-39-17-17-40zm296-72q-16-16-16-39t16-39 39-17 40 17 15 39-15 39-40 15-39-15zm151-263q-24 0-40-16t-16.5-40 16.5-40 40-16 39 16 16 40-16 40-39 16zm-72-295q-16 16-40 16t-39-16-16-40 16-40 39-17 40 17 15 40-15 40z"/></svg>