<svg xmlns="http://www.w3.org/2000/svg" viewBox="-10 0 1010 1000"><path d="M138 492q0-13 9-21t21-8h68q13 0 21 8t8 20.5-9 21.5q-7 8-20 8h-68q-14 0-21-8-9-9-9-21zm97-234q0-11 8-21 11-8 21.5-8t20.5 8l48 50q9 7 9 19t-8.5 20.5T313 335t-20-8l-50-48q-8-10-8-21zm87 234q0-35 14.5-68t39-57 56.5-37.5 68-13.5q47 0 89 24.5t64 63.5q24 40 24 88 0 10-1 14-12-8-32-8-14 0-24 5v-11q0-48-36-83t-84-35-84 34.5-36 83.5v6q-17 2-28 8 0 1-1 1l-2 2q-2 2-7 4-2 1-4 4l-3 3-9 8q-4-15-4-36zm1 122v-5q0-7 1-11 3-21 14-34 4-6 9-11l1-2 6-4q0-1 2-3l3-2q2-3 4-3l6-4q8-5 17-5l9 1 2 1q2 1 3 2 7 4 11 9.5t4 14.5-4 14q-2 3-8 7 0 1-1 1.5l-1 .5-3 1-11 11q-2 4-3 5.5t-1 5.5v5q2 7 3 12 5 7 12 15l8 8q43 40 40 83-2 17-7 29-4 10-14 24l-13 14-9 7-2 1-2 2-2 1q-4 1-5 1l-7 1q-14 0-24-10-6-9-5.5-19.5T366 759l2-2 3-2q2-2 2-3l3-3 3-4q2-2 2-5 1-1 3-5l1-5q1-2 1-6 1-9-5-20l-7-11q-2-1-4-4l-6-7q-1 0-3-2l-2-2q-5-4-11-12l-8-10q-10-16-13-26-2-8-3-11v-3zm130-11v-5q2-12 6.5-21t11.5-18l13-13q2-2 7-5l3-3 4-2q8-5 16-5t11 1l5 2 2 2q10 6 13 18v4l-2 7q-3 10-14 17-17 11-17 23-2 3-1 7.5t7 12.5 7 11l10 9q5 4 15 17 28 33 25 66-2 17-7 29-4 10-14 24l-6 6q-5 6-8 8-6 6-8 7l-4 3-7 2q-3 0-6 1h-1l-10-1-2-1h-1q-1 0-1-1h-1l-9-7q-8-9-6-20t11-18l8-8 8-11 3-8 2-8q0-19-23-42-7-6-15-14-28-36-25-66zm18-372v-69q0-11 8-20t21-9 20 8q9 9 9 21v69q0 11-9.5 19t-20.5 8-19.5-8-8.5-19zm112 367q0-8 6-22 7-12 12.5-18t12.5-12q4-4 10-8l4-3q1 0 3-2 6-3 13-3 16 0 26 13l4 10v4q0 15-15 23-16 10-18 23-1 17 23 40 44 39 41 84-2 15-7.5 28.5T684 779l-13 14q-6 6-9 7-4 3-11 5l-2 1h-5q-16 0-23-9t-7-20 11-18l6-5q4-4 9.5-13.5T646 724q1-20-23-43-20-17-31.5-38t-8.5-45zm76-291q0-12 8-20l48-49q9-9 20.5-9t20.5 9 9 20q0 13-9 21l-49 48q-8 8-20.5 8t-20-8-7.5-20zm77 185q0-10 8.5-19.5T764 463h68q12 0 21 9t9 20.5-9.5 20T832 521h-68q-13 0-20.5-8t-7.5-21z"/></svg>