<svg xmlns="http://www.w3.org/2000/svg" viewBox="-10 0 1010 1000"><path d="M330 652q0-42 20-79t55-62V181q0-41 27.5-68.5t68-27.5 68 28 27.5 67v331q34 23 54 60.5t20 81.5-23 83.5-61.5 62T500 821t-85.5-22.5-61.5-62-23-84.5zm59 0q0 47 32.5 80t79 33 80-35 33.5-78q0-32-16-57-17-28-44-41l-9-5q-5-1-5-10V181q0-17-11.5-27.5T501 143t-28 11-12 27v358q0 7-5 9l-9 5q-27 15-42.5 41.5T389 652zm26 0q0 35 24 60.5t58 25.5 60-25 26-61q0-32-21.5-55.5T509 568V323q0-3-3.5-6.5T498 313t-7 3-3 7v245q-30 4-51.5 28T415 652z"/></svg>