<svg xmlns="http://www.w3.org/2000/svg" viewBox="-10 0 445 1000"><path d="M200 6q0 1-4 1-12 2-16 4t-7 2q-6 2-12 5l-6 3q-7 3-12 8-1 3-6 5-7 7-11 12l-6 6q-3 4-4 6l-5 9q-1 1-4 7.5t-4 8.5-1 6q-2 6-5 20l-1 7v483l-1 2q-3 4-7 7-2 0-5 3t-5.5 4.5T70 622q-1 2-5 5l-1 1q-7 6-17 20 0 1-3 4-1 2-3.5 5.5T36 663l-3 5q-2 5-4 7-3 9-6 12l-1 2q-5 9-5 11l-4 10q0 2-2 8l-3 11-1 9q-3 9-3 14v7q-1 6-1 24t2 27l4 19q2 7 4 16l1 3q0 4 2 6l1 4q0 2 2 4 3 6 6 10 0 1 1 3l1 2q2 0 3 4t2.5 5.5 7 11T55 917q3 4 8 9 0 1 4.5 5.5T74 937l5 5q2 1 6 4l3 2q4 4 8 6l6 5 4 2q2 1 9 4l10 5q2 1 3 1l21 9q5 0 9 2l3 1q5 2 7 2l4 1q2 0 3 1h2q5 1 8 1l12 1q7 1 19.5 1t18.5-1q4 0 7-1 6 0 7-1l8-1q33-8 39-13 2-2 5-2l6-3q2 0 4.5-1.5t8.5-4.5l2-1q5-5 9-6 1-1 4.5-3.5t4.5-2.5q3-3 4.5-4t3.5-3l2-1q6-3 9-8l3-3 3-3 4-4q3-5 6-7l10-13q2-3 3-4l4-5q0-1 2-3l5-10q11-20 14-29 0-3 1-4.5t3-7.5l2-6 1-6q4-13 4.5-39t-1.5-50q-2-12-7-27-2-2-5-12l-1-4-11-21q-7-14-9-17-1 0-3-3l-1-1q-1-2-4-5-5-5-7-9-1-2-4.5-5.5L366 630q-3-3-4-5l-2-2q-3-2-4-2l-4-4q-8-8-11-10-6-3-7.5-6t-1.5-9V215q0-98-1-101l-1-10q0-9-3-13l-2-6q-2-4-2-6l-3-6q-2-9-5-10l-2-4q-2-4-3-4l-2-3q-2-2-6-8-6-4-6-6-5-5-11-9l-10-6q-1-1-8-4.5T255 13q-2 0-6-1l-2-1q-7-3-24.5-5T200 6zm24 37q8 1 16 3l6 3q6 3 16 10l4 3 4 4 4 4q3 3 8.5 11t6.5 11l1 4q6 10 6 39 0 10-.5 12t-2.5 4q-2 2-3.5 2.5t-10.5.5h-12q-15-1-20.5 0t-9.5 4q-7 7-7 14t6 13q5 4 9 5t26 1h17q4 1 5.5 2t2 4.5.5 18.5-.5 17.5-2.5 4.5h-1q-2 2-14 2h-21q-11-1-18.5 4t-8.5 13q0 6 2 9t7 6h1q4 3 7 3.5t19 .5q19 0 23 .5t6 3.5l1 1v17q0 16-1 20t-4 6l-1 1h-46l-2 1q-11 6-12 17t10 16q4 2 8 2.5t21 .5h21l2 1q2 2 3 2l1 126v112q0 16 2 19 5 7 15 12 5 1 8.5 5t6.5 6q19 19 21 22l2 4q3 3 3 4l6 8q3 3 3 4l2 3q2 2 2 4l3 5q2 2 4 9l1 3 2.5 5 2.5 8 5 17q0 4 1 5 3 10 3 32.5t-3 30.5q0 3-1 7t-3 8-3 8-1 5q-2 2-2 6-2 9-7 16l-2 4q-2 2-2 4-4 4-6 8-1 2-3 4l-1 1q0 1-.5 2t-3 3.5-2.5 3.5l-20 20-4 4q-5 2-6 5-4 2-5 3-4 2-5 3l-12 7q-5 4-7 5t-7 3-9 3.5-7 1.5q-2 2-5 2l-6 1q-7 2-18 4l-12 1q-12 2-33-1l-9-1q-4 0-8-2-3 0-9-2l-20-6-19-10q-6-3-10-7-1-1-6-4l-3-2q-2 0-4-3l-5-4q-9-7-13-13 0-1-2-2l-2-2q-1-2-2-2-3-3-11-15 0-1-4-5l-6-12q-2-2-5-10-3-6-5-12l-2.5-7.5L46 823l-1-2q-2-6-2-9-2-6-3-11l-1-17v-18q1-2 1-6l2-13q0-3 3-12l4-13q0-3 2-5l2-7q2-2 3-5l7-15q2-4 4-6l3-5 7-9q8-10 20-22 2-1 6-5 2-1 5-4 1-1 5-3 3-4 9-6l4-3q0-1 2-2l1-1q3-3 4-5.5t1-252.5V116l6-23q1-4 3.5-7t3-5.5T154 70l10-9q0-1 2-2l1-1q2 0 5-3 9-6 21-10 5 0 7-2 4 0 8-1 11 0 16 1zm-16 400q-4 1-9 3.5t-7 4.5l-2 4q-2 2-6 13v101q0 100-1 102t-12 6q-2 0-4 2l-7 4q-8 4-11 6t-11 10q-19 20-21 27l-2 4q-4 7-9 26-2 9-2 25.5t3 22.5l1 6 3 8q2 2 2 5 2 7 13 23l3 4q0 1 10 10l3 3q1 0 2 2l1 1q4 2 5 3l5 3q2 2 8 4l4 3 7 3q8 4 16.5 5.5T216 889t27-3q4-2 7-2 15-7 25-13 1-1 4-3l2-1q1 0 3-2 0-1 4-3l2-2 3-3q6-6 8.5-10.5t9-13T321 805q2-8 2.5-11t.5-17v-13l-2-5-1-8-3-11-3-8q-2-2-3-4l-2-4-1-3q-4-6-11-13l-6-9-12-9-6-5q-2 0-4-1t-8-5q-3-1-9.5-3.5t-8-7-.5-17.5v-17q-1-38-1-83 0-87-1-92-3-8-14.5-13.5T208 443z"/></svg>